<svg class="greenIcon" width="90" height="90" viewBox="0 0 90 90" fill="none" xmlns="http://www.w3.org/2000/svg">
    <path fill-rule="evenodd" clip-rule="evenodd" d="M45 0C20.1472 0 0 20.1472 0 45C0 69.8528 20.1472 90 45 90C69.8528 90 90 69.8528 90 45C90 20.1472 69.8528 0 45 0ZM42.7478 60.9686C42.115 61.931 41.2119 62.4122 40.0386 62.4122C38.9839 62.4122 38.0874 61.9574 37.3491 61.0477L27.1055 48.431C26.8154 48.0883 26.6045 47.7521 26.4727 47.4225C26.354 47.0929 26.2947 46.7501 26.2947 46.3942C26.2947 45.6031 26.5583 44.9506 27.0857 44.4364C27.613 43.9222 28.2788 43.6652 29.083 43.6652C29.9927 43.6652 30.7573 44.0541 31.377 44.8319L39.9595 55.7084L56.7092 29.1698C57.052 28.6425 57.408 28.2733 57.7771 28.0624C58.1462 27.8383 58.6077 27.7262 59.1614 27.7262C59.9656 27.7262 60.6248 27.9767 61.1389 28.4777C61.6531 28.9786 61.9102 29.618 61.9102 30.3959C61.9102 30.7123 61.8574 31.0287 61.752 31.3451C61.6465 31.6615 61.4817 31.9911 61.2576 32.3339L42.7478 60.9686Z" fill="#30D158"/>
</svg>
